<?xml version="1.0" encoding="utf-8"?>
<!-- Generator: Adobe Illustrator 26.0.0, SVG Export Plug-In . SVG Version: 6.00 Build 0)  -->
<svg class="logo__y" version="1.1" xmlns="http://www.w3.org/2000/svg" xmlns:xlink="http://www.w3.org/1999/xlink" x="0px" y="0px"
	 viewBox="0 0 281.1 269" style="enable-background:new 0 0 281.1 269;" xml:space="preserve">
<style type="text/css">
	.st0{display:none;}
	.st1{display:inline;}
	.st2{fill:none;}
</style>
<g id="Layer_1" class="st0">
	<path class="st1" d="M206.6,181.8c-1.4,0.5-2.3,0.8-3.2,1.2c-21.6,10.6-45.6,15.1-69.6,13.1c-39.1-3.2-71.2-20.4-96.1-50.7
		c-14-17.1-23.5-37.3-27.7-59c-1.7-8.7-2.6-17.5-2.7-26.3c0-18.4,0-60.1,0-60.1h52c0,0,0,4.3,0,5.3c0,17.8,0,35.5,0,53.2
		c0,14.3,3,27.9,9.9,40.5c13.9,25.5,35.3,40.5,64,44.6c33.4,4.8,67.5-11.7,84.7-42c7.3-12.7,11.1-27.1,11.1-41.7c0-18,0-59.9,0-59.9
		h52c0,0,0.2,49.4-0.3,72.1c-0.5,25.3-4.2,50.3-9.9,75c-5.9,25.9-14.5,51.1-25.5,75.3c-6.6,14.5-14.2,28.6-22.7,42.1
		c-0.8,1.4-2.2,3.7-2.2,3.7h-63.8c0,0,11.4-15.3,15.4-21.2c13.4-19.5,24.6-40.4,33.5-62.2C206,184,206.2,183.2,206.6,181.8z"/>
</g>
<g id="Layer_2" class="st0">
</g>
<g id="Layer_3">
	<g>
		<path d="M56.7,269l45.9-83L0,0h85.6l58.7,117.2L202.5,0h78.6L133.9,269H56.7z"/>
	</g>
	<line class="st2" x1="48.6" y1="283.6" x2="232.8" y2="-49.3"/>
</g>
</svg>
